# xmcd
#
# Track frame offsets:
# 150
# 18973
# 38463
# 55285
# 76003
# 96513
# 112153
# 139042
# 157840
# 178592
# 193719
# 209741
#
# Disc length: 3258 seconds
#
#
# Revision: 0
# Processed by: cddbd v1.5.2PL0 Copyright (c) Steve Scherf et al.
# Submitted via: FreeRIP 2.941 
#
DISCID=9c0cb80c
DTITLE=Ruud Hermans - Stills
DYEAR=2003
DGENRE=Folk
TTITLE0=Brian, the devil and me
TTITLE1=Taylor on CD
TTITLE2=Shoppin' for the lord
TTITLE3=Chilly wind
TTITLE4=Walk on the beach
TTITLE5=All that you do
TTITLE6=If I could only fly
TTITLE7=She rolls the dice
TTITLE8=Wondering
TTITLE9=One love ago
TTITLE10=So long goodbye
TTITLE11=Won't find me cryin'
EXTD=
EXTT0=
EXTT1=
EXTT2=
EXTT3=
EXTT4=
EXTT5=
EXTT6=
EXTT7=
EXTT8=
EXTT9=
EXTT10=
EXTT11=
PLAYORDER=
